# xmcd
#
# Track frame offsets:
#	150
#	14212
#	28325
#	49011
#	71623
#	87297
#	104019
#	118935
#	138057
#	154201
#	166970
#	187395
#	206713
#	229897
#
# Disc length: 3236 seconds
#
# Revision: 1
# Processed by: cddbd v1.5.2PL0 Copyright (c) Steve Scherf et al.
# Submitted via: EasyCDDAExtractor 10.0.6.1
#
DISCID=d40ca20e
DTITLE=Michael Bublé - Call Me Irresponsible
DYEAR=2007
DGENRE=Blues
TTITLE0=The Best Is Yet To Come
TTITLE1=It had better be tonight
TTITLE2=Me and Mrs. Jones
TTITLE3=I'm Your Man
TTITLE4=Comin' Home Baby (with Boyz II Men)
TTITLE5=Lost
TTITLE6=Call Me Irresponsible
TTITLE7=Wonderful Tonight
TTITLE8=Everything
TTITLE9=I've got the world on a string
TTITLE10=Always on my mind
TTITLE11=That's Life
TTITLE12=Dream
TTITLE13=Love (bonus track)
EXTD=
EXTT0=
EXTT1=
EXTT2=
EXTT3=
EXTT4=
EXTT5=
EXTT6=
EXTT7=
EXTT8=
EXTT9=
EXTT10=
EXTT11=
EXTT12=
EXTT13=
PLAYORDER=
